<?xml version="1.0" encoding="UTF-8" standalone="no"?>
<svg xmlns="http://www.w3.org/2000/svg" xmlns:xlink="http://www.w3.org/1999/xlink" width="40px" height="40px" viewBox="0 0 40 40" version="1.1"><title>Singing Sleep</title><desc>Your unique vanillicon is crafted with love by the team at vanillaforums.com.</desc><defs/><g id="vanillicon" stroke="none" stroke-width="1" fill="none" fill-rule="evenodd"><rect id="background" fill="#0CA2DC" x="-2" y="-2" width="44" height="44"/><g id="avatar" transform="rotate(16, 20, 20) translate(3.000000, 3.000000)"><circle id="body" fill="#EA92FF" cx="17" cy="17" r="16"/><g id="eyes" transform="translate(8.000000, 12.000000)" fill="#1C225C"><path d="M4,4 C5.5286763,4 7.25070761,3.23465275 7.89442719,1.9472136 C8.14141644,1.4532351 7.94119209,0.852562058 7.4472136,0.605572809 C6.9532351,0.35858356 6.35256206,0.558807907 6.10557281,1.0527864 C5.85643524,1.55106153 4.8463237,2 4,2 C3.1536763,2 2.14356476,1.55106153 1.89442719,1.0527864 C1.64743794,0.558807907 1.0467649,0.35858356 0.552786405,0.605572809 C0.0588079071,0.852562058 -0.14141644,1.4532351 0.105572809,1.9472136 C0.749292387,3.23465275 2.4713237,4 4,4 Z" id="left_eye"/><path d="M14,4 C15.5286763,4 17.2507076,3.23465275 17.8944272,1.9472136 C18.1414164,1.4532351 17.9411921,0.852562058 17.4472136,0.605572809 C16.9532351,0.35858356 16.3525621,0.558807907 16.1055728,1.0527864 C15.8564352,1.55106153 14.8463237,2 14,2 C13.1536763,2 12.1435648,1.55106153 11.8944272,1.0527864 C11.6474379,0.558807907 11.0467649,0.35858356 10.5527864,0.605572809 C10.0588079,0.852562058 9.85858356,1.4532351 10.1055728,1.9472136 C10.7492924,3.23465275 12.4713237,4 14,4 Z" id="right_eye"/></g><g id="mouth" transform="translate(13.000000, 21.000000)" fill="#1C225C"><path d="M4,7 C6.209139,7 8,5.3124579 8,3.23076923 L8,0.996357876 C8,0.446084616 7.54696369,0 7.00296986,0 L0.997030139,0 C0.446385598,0 0,0.438091137 0,1.00790469 L0,3.23076923 C0,5.3124579 1.790861,7 4,7 Z M4,6 C5.1045695,6 6,5.55228475 6,5 C6,4.44771525 5.1045695,4 4,4 C2.8954305,4 2,4.44771525 2,5 C2,5.55228475 2.8954305,6 4,6 Z" id="mouth"/></g><path d="M34,17 C34,7.61115925 26.3888407,0 17,0 C7.61115925,0 0,7.61115925 0,17 C0,26.3888407 7.61115925,34 17,34 C26.3888407,34 34,26.3888407 34,17 Z M3,17 C3,9.2680135 9.2680135,3 17,3 C24.7319865,3 31,9.2680135 31,17 C31,24.7319865 24.7319865,31 17,31 C9.2680135,31 3,24.7319865 3,17 Z" id="circle" fill="#1C225C"/></g></g></svg>
